<?xml version="1.0" ?><svg viewBox="0 0 64 64" xmlns="http://www.w3.org/2000/svg"><title/><g data-name="Outline putus" id="Outline_putus"><ellipse cx="28.5" cy="14" rx="1.5" ry="2"/><ellipse cx="35.5" cy="14" rx="1.5" ry="2"/><path d="M34.457,19.16A1.5457,1.5457,0,0,1,33,19.3888V18.61a1.5,1.5,0,1,0-2,0v.7789a1.5457,1.5457,0,0,1-1.457-.2286,1,1,0,0,0-1.086,1.68,3.7433,3.7433,0,0,0,2.043.6475,3.5316,3.5316,0,0,0,1.5-.3491,3.5316,3.5316,0,0,0,1.5.3491,3.7433,3.7433,0,0,0,2.043-.6475,1,1,0,0,0-1.086-1.68ZM32,17a.5.5,0,1,1-.5.5A.5006.5006,0,0,1,32,17Z"/><path d="M48.2275,42.7393a5.8519,5.8519,0,0,0-1.8925-.8277l.7773-.9551A9.1264,9.1264,0,0,0,49.26,35.06c0-.2023-.0321-.3995-.0453-.6a4.9877,4.9877,0,1,0-5.7859-7.9479l-.6917-.1866a10.1426,10.1426,0,0,0-3.3525-2.37,10.4307,10.4307,0,0,0,2.9053-9.52A4.9922,4.9922,0,1,0,36.125,6.86a10.3929,10.3929,0,0,0-8.2582-.01,4.9911,4.9911,0,1,0-6.16,7.5823A10.4826,10.4826,0,0,0,37.5845,25.3759a11.6863,11.6863,0,0,1,1.5884.7128A8.8566,8.8566,0,0,0,34.0752,28.66L32,30.78,29.9238,28.66a8.8225,8.8225,0,0,0-8.5849-2.355l-.7675.207A4.9889,4.9889,0,1,0,14.7855,34.46c-.0132.201-.0453.3982-.0453.6a9.1157,9.1157,0,0,0,2.1348,5.8818l.792.9719a5.875,5.875,0,0,0-1.8945.8255,6.5238,6.5238,0,0,0-2.7579,5.2143,10.5879,10.5879,0,0,0,1.8809,6.438v.0005a9.7508,9.7508,0,0,0,7.7393,4.5986,5.9944,5.9944,0,0,0,3.3769-.9951,6.2491,6.2491,0,0,0,2.5945-4.0371l2.679,2.7407a1,1,0,0,0,1.43,0l2.6791-2.74a6.2471,6.2471,0,0,0,2.5944,4.0364,5.99,5.99,0,0,0,3.3769.9956,9.75,9.75,0,0,0,7.7393-4.5991,10.5879,10.5879,0,0,0,1.8809-6.438A6.5238,6.5238,0,0,0,48.2275,42.7393ZM21,10a3.0033,3.0033,0,0,1,3-3,2.9728,2.9728,0,0,1,2.0667.8456,10.5585,10.5585,0,0,0-3.7615,4.629A3.0123,3.0123,0,0,1,21,10Zm2.5,6.5A8.504,8.504,0,0,1,36.0088,9.002a1.0007,1.0007,0,0,0,1.3535-.4092c.0035-.0065.0028-.0138.0061-.02A2.9956,2.9956,0,0,1,43,10a3.0126,3.0126,0,0,1-1.3023,2.4729,10.4843,10.4843,0,0,0-1.1372-2.0535,1,1,0,1,0-1.6289,1.1592A8.5,8.5,0,1,1,23.5,16.5ZM47,27a3,3,0,1,1-3,3A3.0033,3.0033,0,0,1,47,27ZM17,27a3,3,0,1,1-3,3A3.0033,3.0033,0,0,1,17,27Zm9.7734,25.6641a4.5764,4.5764,0,0,1-1.8769,3.6709c-2.3906,1.6059-6.1319.2319-8.3408-3.0581v0a8.5893,8.5893,0,0,1-1.545-5.2065,4.5746,4.5746,0,0,1,1.877-3.67,4.574,4.574,0,0,1,4.1084-.3452,9.111,9.111,0,0,1,5.7773,8.6089Zm20.6709.6128c-2.2089,3.29-5.9541,4.6616-8.3408,3.0576a4.5747,4.5747,0,0,1-1.8769-3.67,8.589,8.589,0,0,1,1.5449-5.2066,9.2774,9.2774,0,0,1,2.2412-2.3506A1,1,0,0,0,39.835,43.49a11.2775,11.2775,0,0,0-2.7237,2.8536,11.0207,11.0207,0,0,0-1.8343,4.8745L32,54.5693l-3.277-3.3529a11.0239,11.0239,0,0,0-1.8343-4.8731,10.5846,10.5846,0,0,0-5.2451-4.18,8.07,8.07,0,0,0-1.503-.3587c-.0136-.0194-.017-.0426-.0322-.0612l-1.6953-2.08A7.1232,7.1232,0,0,1,16.74,35.06c0-.0289.0061-.0569.0064-.0857.0857.0044.1667.0256.2534.0256a5.0059,5.0059,0,0,0,5-5,4.9451,4.9451,0,0,0-.3223-1.7153l.1827-.0493A6.826,6.826,0,0,1,28.4951,30.06l2.79,2.85a1.0009,1.0009,0,0,0,1.43,0l2.7891-2.85A6.8234,6.8234,0,0,1,42.14,28.2354l.1827.0493A4.9451,4.9451,0,0,0,42,30a5.0059,5.0059,0,0,0,5,5c.0867,0,.1677-.0212.2534-.0256,0,.0288.0064.0568.0064.0857a7.1341,7.1341,0,0,1-1.6856,4.6181l-1.6826,2.065a1.018,1.018,0,0,0-.12.1875l-.1836.37a.9989.9989,0,0,0,.0615.9961,1.0139,1.0139,0,0,0,.8926.4468,4.0624,4.0624,0,0,1,2.57.6567,4.5746,4.5746,0,0,1,1.877,3.67A8.5874,8.5874,0,0,1,47.4443,53.2769Z"/><path d="M20.3662,45.0693a1,1,0,0,0-.7373,1.8594,7.4687,7.4687,0,0,1,3.4717,3.5083,1,1,0,1,0,1.7988-.874A9.36,9.36,0,0,0,20.3662,45.0693Z"/><path d="M43.6338,45.0693a9.36,9.36,0,0,0-4.5332,4.4937,1,1,0,1,0,1.7988.874,7.472,7.472,0,0,1,3.4717-3.5083,1,1,0,0,0-.7373-1.8594Z"/></g></svg>